<svg id="visual" viewBox="0 0 900 600" width="900" height="600" xmlns="http://www.w3.org/2000/svg" xmlns:xlink="http://www.w3.org/1999/xlink" version="1.1"><rect x="0" y="0" width="900" height="600" fill="#0d0021"></rect><path d="M0 383L21.5 390C43 397 86 411 128.8 415.2C171.7 419.3 214.3 413.7 257.2 412C300 410.3 343 412.7 385.8 414.2C428.7 415.7 471.3 416.3 514.2 406.3C557 396.3 600 375.7 642.8 370C685.7 364.3 728.3 373.7 771.2 374.2C814 374.7 857 366.3 878.5 362.2L900 358L900 601L878.5 601C857 601 814 601 771.2 601C728.3 601 685.7 601 642.8 601C600 601 557 601 514.2 601C471.3 601 428.7 601 385.8 601C343 601 300 601 257.2 601C214.3 601 171.7 601 128.8 601C86 601 43 601 21.5 601L0 601Z" fill="#ce69fa"></path><path d="M0 400L21.5 408.7C43 417.3 86 434.7 128.8 441.5C171.7 448.3 214.3 444.7 257.2 447.8C300 451 343 461 385.8 462.5C428.7 464 471.3 457 514.2 455.7C557 454.3 600 458.7 642.8 458C685.7 457.3 728.3 451.7 771.2 441.3C814 431 857 416 878.5 408.5L900 401L900 601L878.5 601C857 601 814 601 771.2 601C728.3 601 685.7 601 642.8 601C600 601 557 601 514.2 601C471.3 601 428.7 601 385.8 601C343 601 300 601 257.2 601C214.3 601 171.7 601 128.8 601C86 601 43 601 21.5 601L0 601Z" fill="#ca5bee"></path><path d="M0 440L21.5 440.2C43 440.3 86 440.7 128.8 447.5C171.7 454.3 214.3 467.7 257.2 479C300 490.3 343 499.7 385.8 504.2C428.7 508.7 471.3 508.3 514.2 498.8C557 489.3 600 470.7 642.8 469.2C685.7 467.7 728.3 483.3 771.2 484C814 484.7 857 470.3 878.5 463.2L900 456L900 601L878.5 601C857 601 814 601 771.2 601C728.3 601 685.7 601 642.8 601C600 601 557 601 514.2 601C471.3 601 428.7 601 385.8 601C343 601 300 601 257.2 601C214.3 601 171.7 601 128.8 601C86 601 43 601 21.5 601L0 601Z" fill="#c64be1"></path><path d="M0 513L21.5 509.8C43 506.7 86 500.3 128.8 498.7C171.7 497 214.3 500 257.2 500.8C300 501.7 343 500.3 385.8 503C428.7 505.7 471.3 512.3 514.2 509.7C557 507 600 495 642.8 493.8C685.7 492.7 728.3 502.3 771.2 509.3C814 516.3 857 520.7 878.5 522.8L900 525L900 601L878.5 601C857 601 814 601 771.2 601C728.3 601 685.7 601 642.8 601C600 601 557 601 514.2 601C471.3 601 428.7 601 385.8 601C343 601 300 601 257.2 601C214.3 601 171.7 601 128.8 601C86 601 43 601 21.5 601L0 601Z" fill="#c23ad4"></path><path d="M0 566L21.5 562C43 558 86 550 128.8 549.5C171.7 549 214.3 556 257.2 557.2C300 558.3 343 553.7 385.8 554.8C428.7 556 471.3 563 514.2 562.5C557 562 600 554 642.8 546.8C685.7 539.7 728.3 533.3 771.2 537C814 540.7 857 554.3 878.5 561.2L900 568L900 601L878.5 601C857 601 814 601 771.2 601C728.3 601 685.7 601 642.8 601C600 601 557 601 514.2 601C471.3 601 428.7 601 385.8 601C343 601 300 601 257.2 601C214.3 601 171.7 601 128.8 601C86 601 43 601 21.5 601L0 601Z" fill="#bd24c7"></path></svg>